# xmcd
#
# Track frame offsets: 
#        150
#        6242
#        17042
#        29548
#        45460
#        55034
#        69866
#        83539
#        97738
#        108127
#
# Disc length: 1690 seconds
#
# Revision: 0
# Processed by: cddbd v1.5.2PL0 Copyright (c) Steve Scherf et al.
# Submitted via: ExactAudioCopyFreeDBPlugin 1.0
#
DISCID=6406980a
DTITLE=Johnny Falstaff - Honky Tonkin' Daddy
DYEAR=1900
DGENRE=Country
TTITLE0=One Hand Tied
TTITLE1=Closin Time
TTITLE2=Turn Down The Lights
TTITLE3=Lora Lie
TTITLE4=Honky Tonkin' Daddy
TTITLE5=Round N Round
TTITLE6=Wanting You
TTITLE7=Shine
TTITLE8=Here
TTITLE9=Down Down Down
EXTD=
EXTT0=
EXTT1=
EXTT2=
EXTT3=
EXTT4=
EXTT5=
EXTT6=
EXTT7=
EXTT8=
EXTT9=
PLAYORDER=
